# xmcd CD database file
#
# Track frame offsets:
#	150
#	22042
#	42002
#
# Disc length: 823 seconds
#
# Revision: 2
# Processed by: cddbd v1.5.1PL2 Copyright (c) Steve Scherf et al.
# Submitted via: CDex 1.51
#
DISCID=1b033503
DTITLE=Celine Dion - The Power Of Love
DYEAR=1900
DGENRE=
TTITLE0=The Power Of Love
TTITLE1=No Living Without Loving You
TTITLE2=Did You Give Enough Love
EXTD=
EXTT0=
EXTT1=
EXTT2=
PLAYORDER=
